<svg id="Layer_1" data-name="Layer 1" xmlns="http://www.w3.org/2000/svg" viewBox="0 0 945.53 873"><defs><style>.cls-1{opacity:0.49;}.cls-2{fill:#6d6d6d;}.cls-3{fill:#efefef;}.cls-4{fill:#afafaf;}</style></defs><title>logo_vetor_branco</title><g class="cls-1"><polygon class="cls-2" points="89.97 178.86 50.97 525.5 11.49 870.1 81.2 870.1 148.85 870.1 176.57 610.11 183.72 525.28 193.74 398.26 201.62 268.13 145.79 223.49 89.97 178.86"/><polygon class="cls-2" points="375.89 437.34 273.9 178.86 169.57 178.91 89.97 178.86 201.62 268.13 204.48 268.13 264.9 460.88 409.21 677.39 468.67 677.39 375.89 437.34"/><polygon class="cls-2" points="906.53 525.5 867.52 178.86 811.7 223.49 755.88 268.13 763.75 398.26 773.77 525.28 780.92 610.11 808.12 872.15 876.83 872.15 945.53 872.15 906.53 525.5"/><polygon class="cls-2" points="787.92 178.91 683.59 178.86 581.61 437.34 489.17 677.39 548.62 677.39 692.59 460.88 753.01 268.13 755.88 268.13 867.52 178.86 787.92 178.91"/><circle class="cls-2" cx="164.7" cy="74.77" r="74.77"/><circle class="cls-2" cx="792.79" cy="74.77" r="74.77"/></g><polygon class="cls-3" points="189.65 268.98 133.83 224.34 78.01 179.71 39 526.36 0 873 68.7 873 137.41 873 164.6 610.96 171.76 526.13 181.78 399.11 189.65 268.98"/><polygon class="cls-4" points="261.94 179.71 227.58 224.57 192.52 268.98 189.65 268.98 78.01 179.71 157.61 179.76 261.94 179.71"/><polygon class="cls-3" points="363.92 438.19 261.94 179.71 192.52 268.98 252.94 461.73 397.44 679.8 456.12 679.36 363.92 438.19"/><polygon class="cls-3" points="743.91 268.98 799.74 224.34 855.56 179.71 894.56 526.36 933.57 873 864.86 873 796.16 873 768.96 610.96 761.8 526.13 751.79 399.11 743.91 268.98"/><polygon class="cls-4" points="671.63 179.71 705.98 224.57 741.05 268.98 743.91 268.98 855.56 179.71 775.96 179.76 671.63 179.71"/><polygon class="cls-3" points="671.63 179.71 569.64 438.19 477.44 679.36 536.13 679.8 680.63 461.73 741.05 268.98 671.63 179.71"/><circle class="cls-3" cx="152.74" cy="75.63" r="74.77"/><circle class="cls-3" cx="780.83" cy="75.63" r="74.77"/></svg>