<svg id="Layer_1" data-name="Layer 1" xmlns="http://www.w3.org/2000/svg" viewBox="0 0 600 600"><defs><style>.cls-1{fill:#f7cf9c;}.cls-2{fill:#eab883;}.cls-3{fill:#5d698c;}.cls-4{fill:#3b4e93;}.cls-5{fill:#e0a773;}</style></defs><title>Artboard 2</title><path class="cls-1" d="M475.77,322.6,382.36,218.12c-56.08-1-86.91-35.65-86.91-35.65a11.63,11.63,0,0,0-14.1-.3l-42,38.17a32.87,32.87,0,0,1-41.83,2,24.26,24.26,0,0,1-3.25-35.9c23.05-23,43.71-53.4,78.18-70.74-10.35-3-32.35-8.76-43.63-3.57C202.11,124.42,172,156.85,159.3,163c-9.71,4.7-10.84,1.85-93.34,2.69v179H122c63.13,0,179.07,121.15,179.07,121.15h0l2.49,2.81a28.52,28.52,0,0,0,44.24-35.77l2.11,2.26c10.39,11.14,27.81,12.64,39.5,2.88a28.49,28.49,0,0,0,7.77-33.58,28.5,28.5,0,0,0,41.53-38.84,28.53,28.53,0,0,0,37-43Z"/><path class="cls-2" d="M105.24,242a200.44,200.44,0,0,1,15-76.3H66v179H122a27.39,27.39,0,0,1,3.89-13.83A200.17,200.17,0,0,1,105.24,242Z"/><path class="cls-2" d="M228.28,347.51a27.35,27.35,0,0,0-38.63-2.06l-17.77,16-4.25,3.83a27.35,27.35,0,1,0,36.57,40.68l22-19.79A27.35,27.35,0,0,0,228.28,347.51Z"/><path class="cls-2" d="M264.85,388.19a27.36,27.36,0,0,0-38.63-2.05l-22,19.79a27.36,27.36,0,0,0,36.58,40.69l22-19.8A27.36,27.36,0,0,0,264.85,388.19Z"/><path class="cls-2" d="M301.43,428.88a27.35,27.35,0,0,0-38.63-2.06l-22,19.8a27.35,27.35,0,1,0,36.57,40.68c7.79-7,14.21-12.77,22-19.79A27.35,27.35,0,0,0,301.43,428.88Z"/><path class="cls-2" d="M191.71,306.82a27.36,27.36,0,0,0-38.63-2.05l-22,19.79a27.36,27.36,0,0,0,36.58,40.69l4.25-3.83,7.73-6.94,10-9A27.35,27.35,0,0,0,191.71,306.82Z"/><path class="cls-2" d="M427,163c-13.63-6.59-46.08-27.09-68.27-44.37,0,0-35.24-28.55-86.21-2.92h0C242,131,220.79,157.9,194.32,186.42a24.27,24.27,0,0,0,3.24,35.9,32.89,32.89,0,0,0,41.84-2l42-38.17a11.63,11.63,0,0,1,14.1.3s30.83,34.61,86.91,35.65L475.77,322.6a28.42,28.42,0,0,1,7.52,22h50v-179C436.34,164.8,436.71,167.68,427,163Z"/><path class="cls-3" d="M553.47,139A23.52,23.52,0,0,0,530,162.56V347.15a23.52,23.52,0,1,0,47,0V162.56A23.52,23.52,0,0,0,553.47,139Z"/><path class="cls-3" d="M45.79,139a23.52,23.52,0,0,0-23.52,23.52V347.15a23.52,23.52,0,1,0,47,0V162.56A23.52,23.52,0,0,0,45.79,139Z"/><path class="cls-4" d="M553.47,264.26A23.52,23.52,0,0,1,530,240.74V347.15a23.52,23.52,0,1,0,47,0V240.74A23.52,23.52,0,0,1,553.47,264.26Z"/><path class="cls-4" d="M45.79,264.26a23.52,23.52,0,0,1-23.52-23.52V347.15a23.52,23.52,0,1,0,47,0V240.74A23.52,23.52,0,0,1,45.79,264.26Z"/><path class="cls-5" d="M153,341.57a27.35,27.35,0,0,1,.73-37.35c-.94.79,2.41-2.21-22.68,20.34a27.36,27.36,0,0,0,36.58,40.69l4.25-3.83,7.73-6.94c10.37-9.35,10.21-9.12,11.33-10.27A27.35,27.35,0,0,1,153,341.57Z"/><path class="cls-5" d="M189.57,382.25a27.36,27.36,0,0,1,.73-37.35c-1.26,1.06.69-.63-10.69,9.58l-12,10.77a27.35,27.35,0,1,0,36.57,40.68l12-10.76c10.37-9.36,10.22-9.12,11.33-10.27A27.35,27.35,0,0,1,189.57,382.25Z"/><path class="cls-5" d="M226.15,422.94a27.34,27.34,0,0,1,.73-37.35c-.9.75-21.78,19.54-22.68,20.34a27.36,27.36,0,0,0,36.58,40.69c2.17-1.95,22.46-20.17,23.31-21A27.35,27.35,0,0,1,226.15,422.94Z"/><path class="cls-5" d="M262.72,463.62a27.35,27.35,0,0,1,.73-37.35c-.89.75-21.78,19.54-22.67,20.35a27.35,27.35,0,1,0,36.57,40.68c24-21.62,22.43-20.12,23.31-21A27.34,27.34,0,0,1,262.72,463.62Z"/></svg>